<?xml version="1.0" encoding="UTF-8"?>
<svg id="Layer_1" xmlns="http://www.w3.org/2000/svg" width="55" height="55" version="1.1" viewBox="0 0 55 55">
  <!-- Generator: Adobe Illustrator 30.3.0, SVG Export Plug-In . SVG Version: 2.1.3 Build 182)  -->
  <defs>
    <style>
      .st0 {
        fill: #fff;
      }

      .st1 {
        fill: #4561b6;
      }
    </style>
  </defs>
  <path class="st1" d="M54.5,15.7351v23.5295c0,8.4136-6.8212,15.2353-15.2353,15.2353H15.7353c-8.4145,0-15.2353-6.8216-15.2353-15.2353V15.7351C.5,7.3206,7.3208.5002,15.7353.5002h23.5295c8.414,0,15.2353,6.8204,15.2353,15.2348"/>
  <path class="st0" d="M21.948,54.4998l.0383-19.2871h-5.7561v-6.8729h5.7544v-4.0077h-.0261l.0059-.5727c.0177-1.7547.1131-3.8033.685-5.6956.5963-1.9713,1.634-3.5275,3.1735-4.7604,1.2968-1.0365,2.8741-1.7396,4.5615-2.0301,1.1908-.2056,2.4405-.3044,3.8206-.3044,1.6033,0,3.3568.1354,5.36.4142l.4886.069v6.4503l-1.3376.0105-2.02.0143c-1.4293.0105-2.9249.1678-4.1801,1.2379-1.2421,1.0613-1.8935,2.7105-1.8834,4.7709l-.029,3.6953-.005.7085h8.89l-1.3195,7.113h-7.4511l-.0278,19.047h-8.742"/>
</svg>