<?xml version="1.0" encoding="UTF-8"?>
<svg id="Layer_1" xmlns="http://www.w3.org/2000/svg" width="55" height="55" version="1.1" viewBox="0 0 55 55">
  <!-- Generator: Adobe Illustrator 30.3.0, SVG Export Plug-In . SVG Version: 2.1.3 Build 182)  -->
  <defs>
    <style>
      .st0 {
        fill: #fff;
      }

      .st0, .st1, .st2 {
        fill-rule: evenodd;
      }

      .st1 {
        fill: #53c5c8;
      }

      .st2 {
        fill: #ed1752;
      }

      .st3 {
        fill: #100f0d;
      }
    </style>
  </defs>
  <path class="st3" d="M54.5,15.735v23.5297c0,8.4137-6.8217,15.2354-15.2354,15.2354H15.7354c-8.415,0-15.2354-6.8217-15.2354-15.2354V15.735C.5,7.3204,7.3204.5,15.7354.5h23.5292c8.4137,0,15.2354,6.8204,15.2354,15.235"/>
  <path class="st2" d="M21.6711,35.5907c-.5332-.6976-.8204-1.5525-.8191-2.4309,0-2.2173,1.7985-4.0162,4.0183-4.0162.4133,0,.8246.0635,1.2186.1884v-4.8559c-.4609-.0635-.9259-.0904-1.391-.0799v3.7794c-.394-.1249-.8048-.1884-1.2186-.1884-2.2194,0-4.0183,1.798-4.0183,4.0166,0,1.5684.899,2.9258,2.2101,3.5868ZM35.3843,18.6889c-.9549-1.042-1.5806-2.3876-1.716-3.8761v-.6106h-1.3187c.3314,1.8914,1.4637,3.5074,3.0347,4.4867ZM33.6682,23.4805c1.8666,1.3338,4.1528,2.1185,6.6224,2.1185v-4.7495c-.4672,0-.9335-.0496-1.391-.1463v3.7395c-2.4691,0-4.7558-.7846-6.6224-2.1185v9.6924c0,4.8496-3.9333,8.7799-8.7837,8.7799-1.8107,0-3.4931-.5471-4.8904-1.4843,1.5954,1.6294,3.8194,2.6416,6.2801,2.6416,4.8517,0,8.785-3.9312,8.785-8.7799v-9.6933"/>
  <path class="st0" d="M32.2772,22.3241c1.8666,1.3338,4.1532,2.1185,6.6224,2.1185v-3.7395c-1.3775-.2927-2.5982-1.013-3.5153-2.0142-1.571-.9793-2.7034-2.5953-3.0347-4.4867h-3.4619v18.9715c-.0076,2.2114-1.8031,4.0027-4.0187,4.0027-1.3044,0-2.4637-.6223-3.1979-1.5857-1.3111-.661-2.2101-2.0184-2.2101-3.5868,0-2.2185,1.7989-4.0166,4.0183-4.0166.4243,0,.8343.0669,1.2186.1884v-3.7794c-4.7655.098-8.5987,3.9905-8.5987,8.7774,0,2.3888.9549,4.5556,2.504,6.1384,1.3973.9373,3.0797,1.4852,4.8904,1.4852,4.8504,0,8.7837-3.9312,8.7837-8.7795v-9.6937"/>
  <path class="st1" d="M24.6978,24.3963v-1.0765c-.399-.0547-.8019-.0816-1.2043-.0816-4.8517,0-8.785,3.9299-8.785,8.7783,0,3.0402,1.5457,5.7196,3.8946,7.2956-1.5491-1.5827-2.504-3.7496-2.504-6.1384,0-4.7869,3.8332-8.6794,8.5987-8.7774ZM32.3496,14.2023c-.0311-.1808-.0559-.3629-.0723-.5458v-.6101h-4.7806v18.9702c-.0076,2.2122-1.8031,4.0027-4.0174,4.0027-.6509,0-1.2648-.1543-1.8081-.4285.7342.9634,1.8935,1.5857,3.1979,1.5857,2.2156,0,4.0111-1.7913,4.0187-4.0027V14.2023h3.4619ZM38.8996,20.7031v-1.0109c-1.243.0021-2.4616-.3456-3.5153-1.0033.9331,1.0218,2.1626,1.7257,3.5153,2.0142"/>
</svg>